<svg xmlns="http://www.w3.org/2000/svg" fill="none" viewBox="0 0 32 34"><rect width="18.666" height="29.002" x="12.332" y="1" stroke="#03CDBE" stroke-width="2" rx="4"/><path fill="#03CDBE" d="M16.668 6.643h4v2.768h-4zM23.996 6.643h3.333v2.768h-3.333zM16.668 13.287h4v2.768h-4zM23.996 13.287h3.333v2.768h-3.333zM16.668 19.376h4v2.768h-4zM23.996 19.376h3.333v2.768h-3.333z"/><rect width="18.148" height="29.172" x="1" y="3.598" fill="#fff" stroke="#03CDBE" stroke-width="2" rx="4"/><path fill="#03CDBE" d="M4.746 9.092h3.556v2.598H4.746zM11.852 9.092h3.556v2.598h-3.556zM4.746 15.586h3.556v2.598H4.746zM11.852 15.586h3.556v2.598h-3.556zM4.746 22.08h3.556v2.598H4.746zM11.852 22.08h3.556v2.598h-3.556z"/></svg>