<svg width="32" height="34" viewBox="0 0 32 34" fill="none" xmlns="http://www.w3.org/2000/svg">
<rect x="12.332" y="1" width="18.6665" height="29.0017" rx="4" stroke="#03CDBE" stroke-width="2"/>
<rect x="16.668" y="6.64319" width="3.99997" height="2.76801" fill="#03CDBE"/>
<rect x="23.9961" y="6.64319" width="3.33331" height="2.76801" fill="#03CDBE"/>
<rect x="16.668" y="13.2865" width="3.99997" height="2.76801" fill="#03CDBE"/>
<rect x="23.9961" y="13.2865" width="3.33331" height="2.76801" fill="#03CDBE"/>
<rect x="16.668" y="19.3762" width="3.99997" height="2.76801" fill="#03CDBE"/>
<rect x="23.9961" y="19.3762" width="3.33331" height="2.76801" fill="#03CDBE"/>
<rect x="1" y="3.59778" width="18.148" height="29.172" rx="4" fill="white" stroke="#03CDBE" stroke-width="2"/>
<rect x="4.74609" y="9.09204" width="3.55553" height="2.59767" fill="#03CDBE"/>
<rect x="11.8516" y="9.09204" width="3.55553" height="2.59767" fill="#03CDBE"/>
<rect x="4.74609" y="15.5863" width="3.55553" height="2.59767" fill="#03CDBE"/>
<rect x="11.8516" y="15.5863" width="3.55553" height="2.59767" fill="#03CDBE"/>
<rect x="4.74609" y="22.0804" width="3.55553" height="2.59767" fill="#03CDBE"/>
<rect x="11.8516" y="22.0804" width="3.55553" height="2.59767" fill="#03CDBE"/>
</svg>
